<svg xmlns="http://www.w3.org/2000/svg" width="25" height="25" viewBox="0 0 25 25">
    <path id="icon-instagram"
          d="M14.5,2.428c3.4,0,3.82.013,5.152.075a9.209,9.209,0,0,1,3.035.581A6.094,6.094,0,0,1,24.9,4.525,6.134,6.134,0,0,1,26.344,6.74a9.234,9.234,0,0,1,.581,3.035c.059,1.332.075,1.756.075,5.152s-.012,3.82-.075,5.153a9.241,9.241,0,0,1-.581,3.035,6.382,6.382,0,0,1-3.656,3.656,9.234,9.234,0,0,1-3.035.581c-1.333.059-1.756.075-5.152.075s-3.82-.012-5.153-.075a9.241,9.241,0,0,1-3.035-.581,6.382,6.382,0,0,1-3.656-3.656,9.2,9.2,0,0,1-.581-3.035C2.016,18.748,2,18.324,2,14.928s.012-3.82.075-5.152A9.2,9.2,0,0,1,2.656,6.74,6.1,6.1,0,0,1,4.1,4.525,6.121,6.121,0,0,1,6.313,3.084,9.2,9.2,0,0,1,9.347,2.5C10.68,2.444,11.1,2.428,14.5,2.428Zm0,6.25a6.25,6.25,0,1,0,4.419,1.831A6.25,6.25,0,0,0,14.5,8.678Zm8.125-.312a1.562,1.562,0,1,0-.458,1.1A1.563,1.563,0,0,0,22.625,8.365ZM14.5,11.178a3.75,3.75,0,1,1-2.652,1.1A3.75,3.75,0,0,1,14.5,11.178Z"
          transform="translate(-2 -2.428)" fill="#ffffff"/>
</svg>
