<svg xmlns="http://www.w3.org/2000/svg" width="23.572" height="46.278" viewBox="0 0 23.572 46.278">
    <g id="icon-phone" transform="translate(0.75 0.75)" opacity="0.505">
        <g id="Layer_1" data-name="Layer 1" transform="translate(0 0)">
            <path id="Path_52" data-name="Path 52"
                  d="M19.091.742V2.234a1.343,1.343,0,0,1-1.343,1.313H9.543A1.343,1.343,0,0,1,8.2,2.212V.72"
                  transform="translate(-2.643 -0.72)" fill="none" stroke="#fff" stroke-linecap="round"
                  stroke-linejoin="round" stroke-width="1.5"/>
            <path id="Path_53" data-name="Path 53"
                  d="M6.33.75H3.987A3.237,3.237,0,0,0,.75,3.987V42.268a3.237,3.237,0,0,0,3.237,3.237h15.6a3.237,3.237,0,0,0,3.237-3.237V3.987A3.237,3.237,0,0,0,19.585.75Z"
                  transform="translate(-0.75 -0.728)" fill="none" stroke="#fff" stroke-linecap="round"
                  stroke-linejoin="round" stroke-width="1.5"/>
            <ellipse id="Ellipse_10" data-name="Ellipse 10" cx="7.616" cy="7.616" rx="7.616" ry="7.616"
                     transform="translate(3.409 8.944)" fill="none" stroke="#fff" stroke-linecap="round"
                     stroke-linejoin="round" stroke-width="1.5"/>
            <ellipse id="Ellipse_11" data-name="Ellipse 11" cx="2.946" cy="2.946" rx="2.946" ry="2.946"
                     transform="translate(12.867 26.45)" fill="none" stroke="#fff" stroke-linecap="round"
                     stroke-linejoin="round" stroke-width="1.5"/>
        </g>
    </g>
</svg>