<svg xmlns="http://www.w3.org/2000/svg" width="116.177" height="88.682" viewBox="0 0 116.177 88.682">
  <g id="money_back_guarantee" transform="translate(-2.18 -3.21)">
    <g id="Group_1" data-name="Group 1" transform="translate(17.449 3.21)">
      <path id="Path_1" data-name="Path 1" d="M127.342,3.21H57.719A8.154,8.154,0,0,1,49.71,11.5V32.212h2.827V14.045a11.08,11.08,0,0,0,7.636-7.907h64.715a11.08,11.08,0,0,0,7.636,7.907V32.212h2.827V11.5A8.154,8.154,0,0,1,127.342,3.21Z" transform="translate(-49.71 -3.21)" fill="#242020"/>
      <path id="Path_2" data-name="Path 2" d="M132.524,182.61v18.167a11.08,11.08,0,0,0-7.636,7.907H60.173a11.08,11.08,0,0,0-7.636-7.907V182.61H49.71v20.709a8.154,8.154,0,0,1,8.009,8.293h69.62a8.154,8.154,0,0,1,8.009-8.293V182.61h-2.824Z" transform="translate(-49.71 -122.93)" fill="#242020"/>
    </g>
    <path id="Path_3" data-name="Path 3" d="M138.657,198.731a13.92,13.92,0,0,0-6.785,7.026H71.109a13.907,13.907,0,0,0-6.785-7.026V182.61H62.91v17.1a12.539,12.539,0,0,1,7.254,7.512h62.652a12.539,12.539,0,0,1,7.254-7.512v-17.1h-1.414Z" transform="translate(-41.22 -119.72)" fill="#242020"/>
    <path id="Path_4" data-name="Path 4" d="M64.324,24.9a13.92,13.92,0,0,0,6.785-7.026h60.763a13.907,13.907,0,0,0,6.785,7.026V41.021h1.414v-17.1a12.539,12.539,0,0,1-7.254-7.512H70.164a12.539,12.539,0,0,1-7.254,7.512v17.1h1.414Z" transform="translate(-41.22 -8.809)" fill="#242020"/>
    <path id="Path_5" data-name="Path 5" d="M108.578,108.666l9.779,13.876H2.18l9.779-13.876L2.18,94.79H118.357Z" transform="translate(0 -61.114)" fill="#242020"/>
    <path id="Path_6" data-name="Path 6" d="M56.118,128.735h-3v-7.3h-.173l-1.124,7.3H48.748l-1.07-7.3h-.19v7.3H44.53l.4-13.989h4.3l1.07,7.568h.151l1.031-7.568h4.237ZM58.4,116.21a3.965,3.965,0,0,1,3.6-1.69,3.938,3.938,0,0,1,3.579,1.667q1.079,1.667,1.079,5.419a10.859,10.859,0,0,1-1.108,5.552,4.471,4.471,0,0,1-7.158.023,10.888,10.888,0,0,1-1.089-5.529Q57.3,117.895,58.4,116.21Zm4.7,2.6a1.089,1.089,0,0,0-1.128-.732,1.042,1.042,0,0,0-1.1.732,10.14,10.14,0,0,0-.247,2.781v.539A9.381,9.381,0,0,0,60.9,125a1.089,1.089,0,0,0,1.128.685,1.046,1.046,0,0,0,1.1-.652,9.22,9.22,0,0,0,.247-2.7v-.722A9.31,9.31,0,0,0,63.1,118.811Zm13.5,9.923H73.469l-2.461-6.51h-.154v6.51h-2.9V114.746h3.225l2.348,6.713h.154v-6.713H76.6v13.989Zm8.1,0H78.282V114.746h6.605l-.19,3.446H81.549v2.1h2.731v2.974H81.549v2.319H84.89Zm9.313-13.992-2.824,9.664v4.325H87.939v-4.325l-2.785-9.664h3.588l.858,4.551h.151l.819-4.551Zm13.188,9.957q0,4.032-3.666,4.032H98.852V114.743h4.581a3.692,3.692,0,0,1,2.692.868,3.751,3.751,0,0,1,.877,2.761,3.393,3.393,0,0,1-1.317,2.884v.136Q107.2,122.087,107.195,124.7Zm-3.8-4.278a3.666,3.666,0,0,0-.01-2.239.654.654,0,0,0-.62-.326h-.61v2.884h.63A.645.645,0,0,0,103.4,120.422Zm.145,5.509a2.585,2.585,0,0,0,.2-1.261,3.13,3.13,0,0,0-.209-1.351.789.789,0,0,0-.765-.393h-.61v3.31h.61A.881.881,0,0,0,103.542,125.93Zm13.274,2.8H113.63l-.363-2.209h-2.252l-.363,2.209h-3.036l2.175-13.989h4.848Zm-3.913-4.844-.668-5H112.1l-.668,5Zm7.845-2.016a8.526,8.526,0,0,0,.334,2.838,1.143,1.143,0,0,0,1.1.845,7.948,7.948,0,0,0,2.156-.429l.495,3.177a7.573,7.573,0,0,1-3.036.652,3.565,3.565,0,0,1-3.331-1.79,10.86,10.86,0,0,1-1.041-5.339,10.985,10.985,0,0,1,1.089-5.429,3.783,3.783,0,0,1,3.55-1.88,5.678,5.678,0,0,1,2.769.722l-.514,3.493a6.958,6.958,0,0,0-2.082-.586,1.173,1.173,0,0,0-1.163.868A8.842,8.842,0,0,0,120.749,121.875Zm13.284,6.86h-3.608l-1.433-5.273h-.19v5.273h-3.168V114.746H128.8V120.6h.19l1.719-5.858h3.511l-2.31,7.232Z" transform="translate(-28.745 -74.281)" fill="#fff"/>
    <g id="Group_2" data-name="Group 2" transform="translate(30.901 15.053)">
      <path id="Path_7" data-name="Path 7" d="M95.487,50.82a1.9,1.9,0,0,0,.292,1.118.888.888,0,0,0,.768.3c.562,0,1.06-.472,1.06-1.42V48.388h-.042a2.714,2.714,0,0,1-2.474,1.184c-2.1,0-3.511-1.055-3.511-4.627,0-4.132,1.767-5.745,4.925-5.745,3.367,0,5.092,1.527,5.092,6.5v1.677c0,4.691-.684,7.359-5.069,7.359-3.8,0-4.633-1.893-4.655-3.915h3.614Zm1.038-4.132c.726,0,1.079-.539,1.079-2.495s-.27-2.5-1.079-2.5c-.726,0-1.079.539-1.079,2.5S95.715,46.688,96.524,46.688Z" transform="translate(-91.58 -39.07)" fill="#242020"/>
      <path id="Path_8" data-name="Path 8" d="M130.218,39.2c3.45,0,5.008,1.613,5.008,7.768s-1.558,7.768-5.008,7.768-5.008-1.613-5.008-7.768S126.768,39.2,130.218,39.2Zm-1.144,10.286c0,2.172.334,2.754,1.144,2.754s1.144-.582,1.144-2.754V44.449c0-2.172-.334-2.754-1.144-2.754s-1.144.582-1.144,2.754Z" transform="translate(-114.406 -39.07)" fill="#242020"/>
      <path id="Path_9" data-name="Path 9" d="M177.28,38.81h5.609c4.469,0,4.7,3.659,4.7,7.681s-.228,7.681-4.7,7.681H177.28Zm3.865,12.482h.768c1.5,0,1.683-.645,1.683-4.8s-.186-4.8-1.683-4.8h-.768Z" transform="translate(-149.748 -38.81)" fill="#242020"/>
      <path id="Path_10" data-name="Path 10" d="M213.167,38.81h4.864l3.614,15.366H217.53l-.4-2.691H214.06l-.4,2.691H209.55Zm2.451,3.144h-.042l-1.06,6.52h2.162Z" transform="translate(-171.651 -38.81)" fill="#242020"/>
      <path id="Path_11" data-name="Path 11" d="M244.384,48.128,240.6,38.81h4.241l1.455,5.359h.042l1.455-5.359h4.237l-3.781,9.318v6.048h-3.865Z" transform="translate(-192.726 -38.81)" fill="#242020"/>
    </g>
    <g id="Group_3" data-name="Group 3" transform="translate(27.328 65.751)">
      <path id="Path_12" data-name="Path 12" d="M83.9,196.01h3.274v5.479H85.452L85.4,200.6h-.026a2.045,2.045,0,0,1-2.1,1.088c-2.577,0-2.811-1.906-2.811-5.239,0-3.377.626-5.24,3.627-5.24,1.8,0,3.081.945,3.081,3.39H84.713a3.789,3.789,0,0,0-.135-1.171.579.579,0,0,0-.588-.439c-.832,0-.912.735-.912,3.46s.08,3.46.858,3.46c.533,0,.845-.353.858-2.119h-.9v-1.78Z" transform="translate(-80.46 -191.21)" fill="#242020"/>
      <path id="Path_13" data-name="Path 13" d="M106.792,191.8v7.272c0,.975.286,1.228.765,1.228s.765-.253.765-1.228V191.8h2.538v6.61c0,2.824-1.173,3.673-3.3,3.673s-3.3-.848-3.3-3.673V191.8Z" transform="translate(-96.614 -191.604)" fill="#242020"/>
      <path id="Path_14" data-name="Path 14" d="M127.707,191.8h3.19l2.374,10.083h-2.7l-.26-1.766h-2.018l-.26,1.766h-2.7Zm1.61,2.063h-.026l-.7,4.278h1.42Z" transform="translate(-110.915 -191.604)" fill="#242020"/>
      <path id="Path_15" data-name="Path 15" d="M151.363,191.8h3.968A2.4,2.4,0,0,1,158,194.485c0,1.341-.5,2.216-1.664,2.4v.027c1.227.113,1.6.918,1.6,2.259v.862a4.277,4.277,0,0,0,.122,1.4.663.663,0,0,0,.286.309v.14h-2.7a5.5,5.5,0,0,1-.244-1.919v-.679c0-1.144-.218-1.44-.832-1.44H153.9v4.039H151.36V191.8Zm2.535,4.265h.5c.723,0,1.063-.479,1.063-1.2,0-.818-.315-1.171-1.076-1.171H153.9Z" transform="translate(-128.583 -191.604)" fill="#242020"/>
      <path id="Path_16" data-name="Path 16" d="M175.677,191.8h3.19l2.374,10.083h-2.7l-.26-1.766h-2.017l-.26,1.766h-2.7Zm1.61,2.063h-.026l-.7,4.278h1.42Z" transform="translate(-143.474 -191.604)" fill="#242020"/>
      <path id="Path_17" data-name="Path 17" d="M199.34,191.8h2.837l1.635,6.214h.026V191.8h2.374v10.083H203.43l-1.69-6.228h-.026v6.228H199.34Z" transform="translate(-161.149 -191.604)" fill="#242020"/>
      <path id="Path_18" data-name="Path 18" d="M224.438,194.022H222.53V191.79h6.355v2.232h-1.908v7.851h-2.538Z" transform="translate(-176.889 -191.597)" fill="#242020"/>
      <path id="Path_19" data-name="Path 19" d="M244.09,191.8h5.77v2.146h-3.232v1.723h3.026v2.063h-3.026v2.006h3.354v2.146H244.09Z" transform="translate(-191.522 -191.604)" fill="#242020"/>
      <path id="Path_20" data-name="Path 20" d="M265.32,191.8h5.77v2.146h-3.232v1.723h3.026v2.063h-3.026v2.006h3.354v2.146H265.32Z" transform="translate(-205.932 -191.604)" fill="#242020"/>
    </g>
  </g>
</svg>
